<svg xmlns="http://www.w3.org/2000/svg" width="24.851" height="24.851" viewBox="0 0 24.851 24.851">
  <g id="np_crosshair_171399_000000" transform="translate(-4.999 -5)">
    <path id="Tracé_6617" data-name="Tracé 6617" d="M42.948,38.6A4.349,4.349,0,1,1,38.6,34.25,4.349,4.349,0,0,1,42.948,38.6" transform="translate(-21.174 -21.174)" fill="#fff"/>
    <path id="Tracé_6618" data-name="Tracé 6618" d="M29.85,16.182H27.278a9.931,9.931,0,0,0-8.611-8.611V5H16.182V7.571A9.931,9.931,0,0,0,7.57,16.182H5v2.485H7.57a9.931,9.931,0,0,0,8.611,8.611V29.85h2.485V27.279a9.931,9.931,0,0,0,8.611-8.611H29.85Zm-12.425,8.7a7.455,7.455,0,1,1,7.455-7.455A7.464,7.464,0,0,1,17.424,24.88Z" fill="#fff"/>
  </g>
</svg>
