<?xml version="1.0" encoding="UTF-8"?>
<svg id="Calque_1" data-name="Calque 1" xmlns="http://www.w3.org/2000/svg" viewBox="0 0 100 100">
  <defs>
    <style>
      .cls-1 {
        fill: #fff;
      }

      .cls-2 {
        fill: #a380fc;
      }
    </style>
  </defs>
  <circle id="Ellipse_3" data-name="Ellipse 3" class="cls-2" cx="50" cy="50" r="50"/>
  <g id="Groupe_4" data-name="Groupe 4">
    <path class="cls-1" d="M27.52,68.14c-.23,0-.47-.05-.7-.16-.77-.38-1.08-1.32-.7-2.1l11.05-22.11c.38-.77,1.32-1.08,2.1-.7.77.39,1.08,1.32.7,2.1l-11.05,22.11c-.27.55-.83.86-1.4.86Z"/>
    <path class="cls-1" d="M41.33,68.14c-.23,0-.47-.05-.7-.16-.77-.38-1.08-1.32-.7-2.1l11.05-22.11c.39-.77,1.33-1.08,2.1-.7s1.09,1.32.7,2.1l-11.05,22.11c-.27.55-.83.86-1.4.86Z"/>
    <path class="cls-1" d="M55.34,68.7c-.23,0-.47-.05-.7-.16-.77-.39-1.08-1.32-.7-2.1l17.14-34.28c.39-.77,1.32-1.08,2.1-.7.77.39,1.08,1.32.7,2.1l-17.14,34.28c-.27.55-.83.86-1.4.86Z"/>
  </g>
</svg>