<svg id="Groupe_119" data-name="Groupe 119" xmlns="http://www.w3.org/2000/svg" xmlns:xlink="http://www.w3.org/1999/xlink" width="92.582" height="32.111" viewBox="0 0 92.582 32.111">
  <defs>
    <clipPath id="clip-path">
      <rect id="Rectangle_362" data-name="Rectangle 362" width="92.582" height="32.111" fill="none"/>
    </clipPath>
  </defs>
  <g id="Groupe_118" data-name="Groupe 118" transform="translate(0 0)" clip-path="url(#clip-path)">
    <path id="Tracé_6624" data-name="Tracé 6624" d="M12.653,13.568v5.941a8.423,8.423,0,0,1-3.487.664c-3.888,0-6.62-3.009-6.62-7.3,0-4.367,2.376-6.882,6.512-6.882a6.6,6.6,0,0,1,4.814,2.083l1.342-1.358A10.066,10.066,0,0,0,9.058,4.835C3.472,4.835,0,7.921,0,12.874A8.306,8.306,0,0,0,2.546,19.2a9.218,9.218,0,0,0,6.4,2.253,21.834,21.834,0,0,0,5.972-1.142l-.031-1.96c0-2.932.077-4.367.108-4.783Zm66.736-8.44H77.337L72.276,18.29,67.2,5.128H64.468c1.728,4.1,5,11.943,6.481,16.032h1.728c2.006-5.2,4.367-10.817,6.712-16.032m-32,0c-.077,2.577-.123,5.154-.123,7.746v8.3H46.63Q41.114,15.194,35.413,9.387V21.175H33.9q.267-8.021.015-16.048h.741c3.672,4,8.518,9.058,11.218,11.789V5.128Zm-17,14.489c-.8.062-3.117.154-8.656.154l.015-6.4c3.41,0,5.972.062,7.283.139V11.948c-1.3.108-4.706.154-7.283.154l.015-5.57c2.577,0,6.558.015,8.5.139V5.128H19.3q.242,8.013-.015,16.032H30.367Zm32.018,0c-.8.062-3.117.154-8.656.154l.015-6.4c3.41,0,5.972.062,7.283.139V11.948c-1.3.108-4.706.154-7.283.154l.015-5.57c2.577,0,6.558.015,8.5.139V5.128H51.321q.242,8.013-.015,16.032H62.385Zm30.182,0c-.8.062-3.117.154-8.656.154l.015-6.4c3.395,0,5.972.062,7.283.139V11.948c-1.3.108-4.706.154-7.283.154l.015-5.57c2.577,0,6.558.015,8.5.139V5.128H81.5q.242,8.013-.015,16.032H92.566ZM41.94,24.863h3.41v.447H42.464v1.111h2.808v.432H42.464V28.1h3.024v.463H41.94Zm1.759-.895h.663l-.663.664h-.339Zm5.956.895H52.17a1.467,1.467,0,0,1,1.034.293.988.988,0,0,1,.324.787,1.039,1.039,0,0,1-1,1.049l1.358,1.558h-.694l-1.25-1.481h-1.79v1.481h-.525V24.863Zm.525.447v1.342h1.836a1.007,1.007,0,0,0,.864-.278A.635.635,0,0,0,53,25.99.663.663,0,0,0,52.9,25.6c-.17-.262-.432-.262-.679-.278H50.179Zm11.727,1.45a1.966,1.966,0,0,1-2.222,1.9,2.564,2.564,0,0,1-1.512-.4,1.714,1.714,0,0,1-.756-1.5,2.025,2.025,0,0,1,2.237-1.991,2.048,2.048,0,0,1,2.253,1.991m-3.966-.031a1.427,1.427,0,0,0,.324.941,1.806,1.806,0,0,0,1.42.54c1.373,0,1.7-.864,1.7-1.5,0-.972-.787-1.512-1.79-1.5a1.522,1.522,0,0,0-1.651,1.512m10.184-1.867a1.584,1.584,0,0,1,1.126.309,1.084,1.084,0,0,1,.355.818,1.177,1.177,0,0,1-.185.648,1.408,1.408,0,0,1-1.25.447H66.412v1.481h-.54v-3.7Zm-.015,1.774a1.246,1.246,0,0,0,.663-.123.669.669,0,0,0,.108-.988,1.086,1.086,0,0,0-.818-.216H66.412v1.342h1.7Zm9.582.123a1.966,1.966,0,0,1-2.222,1.9,2.643,2.643,0,0,1-1.528-.4,1.746,1.746,0,0,1-.756-1.5,2.025,2.025,0,0,1,2.237-1.991,2.053,2.053,0,0,1,2.268,1.991m-3.966-.031a1.427,1.427,0,0,0,.324.941,1.806,1.806,0,0,0,1.42.54c1.373,0,1.7-.864,1.7-1.5,0-.972-.787-1.512-1.79-1.5a1.522,1.522,0,0,0-1.651,1.512m7.947-1.867h2.515a1.467,1.467,0,0,1,1.034.293.988.988,0,0,1,.324.787,1.039,1.039,0,0,1-1,1.049L85.9,28.551h-.663l-1.25-1.481H82.2v1.481h-.525Zm.509.447v1.342h1.836a.993.993,0,0,0,.864-.278.635.635,0,0,0,.123-.386A.663.663,0,0,0,84.9,25.6c-.17-.262-.432-.262-.679-.278H82.182Zm6.851-.447v.447h1.512v3.256h.525V25.311h.91v-.447Zm-52.648,0h-.555l-1.913,3.7H34.5l.447-.91h2.268l.447.91h.6Zm-1.219,2.361.787-1.558.123-.278.123.278.787,1.558Z" transform="translate(0 3.451)"/>
    <path id="Tracé_6625" data-name="Tracé 6625" d="M23.013,0V.123A88.979,88.979,0,0,0,45.85,6.774l-.586-1.5C37.626,4.459,28.6,1.682,23.707.015h-.694Z" transform="translate(16.442 0)" fill="#76c6e7"/>
  </g>
</svg>
