<svg id="Groupe_126" data-name="Groupe 126" xmlns="http://www.w3.org/2000/svg" xmlns:xlink="http://www.w3.org/1999/xlink" width="83.693" height="15.369" viewBox="0 0 83.693 15.369">
  <defs>
    <clipPath id="clip-path">
      <rect id="Rectangle_366" data-name="Rectangle 366" width="83.692" height="15.369" fill="none"/>
    </clipPath>
  </defs>
  <path id="Tracé_6626" data-name="Tracé 6626" d="M12.193.167,8.55,8.523,5.07.167H0v14.8H3.787V6.421l3.6,8.543H9.424l3.664-8.543v8.543h3.787V.167Z" transform="translate(0 0.119)" fill="#f60"/>
  <g id="Groupe_125" data-name="Groupe 125" transform="translate(0 0)">
    <g id="Groupe_124" data-name="Groupe 124" clip-path="url(#clip-path)">
      <path id="Tracé_6627" data-name="Tracé 6627" d="M11.541,14.964V.166h3.237a.614.614,0,0,1,.567.591V14.964Z" transform="translate(8.246 0.118)" fill="#f60"/>
      <path id="Tracé_6628" data-name="Tracé 6628" d="M23.245,6.563h4.809a.612.612,0,0,1,.6.674v7.645a26.632,26.632,0,0,1-5.041.487c-5.519,0-8.427-2.628-8.427-7.7C15.184,3.136,18.092,0,22.942,0a9.577,9.577,0,0,1,5.214,1.384L26.664,3.93a9.435,9.435,0,0,0-3.438-.794c-2.789,0-4.092,1.852-4.092,4.528,0,2.861,1.509,4.627,4.295,4.627a11.543,11.543,0,0,0,1.649-.1V9.584H23.245Z" transform="translate(10.849 0)" fill="#f60"/>
      <path id="Tracé_6629" data-name="Tracé 6629" d="M33.092,14.964,31.336,10.89c-.358-.828-.609-1.241-1.37-1.241h-1.54v5.315H24.708V.757a.662.662,0,0,1,.579-.591h5.251c2.851,0,5.3.591,5.3,4.278a3.568,3.568,0,0,1-2.625,3.679,4.459,4.459,0,0,1,2.177,2.57l1.69,4.271Zm-2.8-11.947H28.427v3.71h1.862a1.818,1.818,0,0,0,1.987-2c0-1.426-.874-1.711-1.987-1.711" transform="translate(17.653 0.118)" fill="#f60"/>
      <path id="Tracé_6630" data-name="Tracé 6630" d="M39.807,15.369c-4.845,0-7.408-3.424-7.408-7.7C32.4,3.42,34.962,0,39.807,0c4.537,0,7.1,3.42,7.1,7.664,0,4.283-2.567,7.7-7.1,7.7m0-12.233c-2,0-3.417,1.426-3.417,4.528,0,3.148,1.42,4.567,3.417,4.567,1.711,0,3.112-1.42,3.112-4.567,0-3.1-1.4-4.528-3.112-4.528" transform="translate(23.148 0)" fill="#f60"/>
      <path id="Tracé_6631" data-name="Tracé 6631" d="M47.554,15.369a11.409,11.409,0,0,1-5.86-1.608l1.685-2.992a9.566,9.566,0,0,0,4.459,1.445c.957,0,2.162-.185,2.162-1.246,0-1-1.348-1.3-3.117-1.807-2.136-.612-4.622-1.462-4.622-4.334,0-3.1,2.75-4.826,6.33-4.826a7.584,7.584,0,0,1,5.128,1.73L51.665,4.068A6.3,6.3,0,0,0,48.447,2.99c-1.4,0-2.2.531-2.2,1.306s1.018,1.159,2.3,1.545c2.263.7,5.353,1.411,5.353,4.377,0,3.053-2.44,5.15-6.349,5.15" transform="translate(29.79 0)" fill="#f60"/>
    </g>
  </g>
</svg>
