<svg id="Groupe_128" data-name="Groupe 128" xmlns="http://www.w3.org/2000/svg" xmlns:xlink="http://www.w3.org/1999/xlink" width="106.219" height="22.856" viewBox="0 0 106.219 22.856">
  <defs>
    <clipPath id="clip-path">
      <rect id="Rectangle_367" data-name="Rectangle 367" width="106.219" height="22.856" fill="none"/>
    </clipPath>
  </defs>
  <g id="Groupe_127" data-name="Groupe 127" transform="translate(0 0)" clip-path="url(#clip-path)">
    <path id="Tracé_6632" data-name="Tracé 6632" d="M23.912,6.628a2.751,2.751,0,0,0-1.943.8A2.633,2.633,0,0,0,21.4,8.3a2.836,2.836,0,0,0-.2,1.1,2.39,2.39,0,0,0,.218,1,2.68,2.68,0,0,0,1.438,1.394,2.629,2.629,0,0,0,1.036.2,2.552,2.552,0,0,0,1.034-.218,2.83,2.83,0,0,0,.857-.571,2.667,2.667,0,0,0,.583-.847,2.539,2.539,0,0,0,.216-1.034,2.691,2.691,0,0,0-.787-1.908,2.721,2.721,0,0,0-.847-.571,2.554,2.554,0,0,0-1.034-.218m0-3.172a5.691,5.691,0,0,1,2.285.463,5.946,5.946,0,0,1,3.132,3.132,5.765,5.765,0,0,1,.463,2.315,5.458,5.458,0,0,1-.463,2.251,5.9,5.9,0,0,1-1.276,1.857,6.077,6.077,0,0,1-1.879,1.262,5.7,5.7,0,0,1-2.285.463,5.848,5.848,0,0,1-2.3-.451,5.917,5.917,0,0,1-1.881-1.24,6.186,6.186,0,0,1-1.274-1.834,5.323,5.323,0,0,1-.473-2.239,6.021,6.021,0,0,1,.463-2.361,5.832,5.832,0,0,1,3.143-3.16,5.886,5.886,0,0,1,2.342-.463M38.843,9.371A8.147,8.147,0,0,0,38.8,8.349a3.054,3.054,0,0,0-.166-.617,1.81,1.81,0,0,0-.7-.789,1.9,1.9,0,0,0-1.034-.309,1.808,1.808,0,0,0-1.382.593,2.067,2.067,0,0,0-.549,1.452v4.7a1.928,1.928,0,0,1-.453,1.284,1.586,1.586,0,0,1-2.273-.01,1.838,1.838,0,0,1-.441-1.274V8.994a6.7,6.7,0,0,1,.264-2.011,5.115,5.115,0,0,1,.857-1.612,4.845,4.845,0,0,1,1.759-1.406,5.045,5.045,0,0,1,4.725.178,5.2,5.2,0,0,1,1.915,1.845,4.5,4.5,0,0,1,.514,1.349,7.965,7.965,0,0,1,.177,1.754v4.291a1.944,1.944,0,0,1-.451,1.286,1.428,1.428,0,0,1-1.12.473,1.514,1.514,0,0,1-1.156-.485,1.837,1.837,0,0,1-.439-1.274V9.371ZM49.91,6.559a2.562,2.562,0,0,0-1.8.693,2.6,2.6,0,0,0-.847,1.714l4.046-1.738A1.543,1.543,0,0,0,49.9,6.559m0,5.383a2.713,2.713,0,0,0,.914-.154,3.383,3.383,0,0,0,.914-.514,2.05,2.05,0,0,1,.514-.3,1.341,1.341,0,0,1,.487-.086,1.535,1.535,0,0,1,1.142.451,1.515,1.515,0,0,1,.453,1.12,1.619,1.619,0,0,1-.286.921,3.458,3.458,0,0,1-.9.845,4.913,4.913,0,0,1-1.524.725,6.123,6.123,0,0,1-1.714.252,5.559,5.559,0,0,1-2.263-.475,6.24,6.24,0,0,1-1.881-1.284,6.3,6.3,0,0,1-1.284-1.881A5.458,5.458,0,0,1,44,9.3a5.569,5.569,0,0,1,.463-2.251,5.977,5.977,0,0,1,1.262-1.857,6.058,6.058,0,0,1,1.846-1.264,5.472,5.472,0,0,1,2.239-.463,5.62,5.62,0,0,1,1.858.321,5.457,5.457,0,0,1,1.593.869A4.538,4.538,0,0,1,54.368,5.92a2.919,2.919,0,0,1,.417,1.5,1.267,1.267,0,0,1-.3.868,3.091,3.091,0,0,1-1.012.681L48.19,11.309a2.538,2.538,0,0,0,1.714.646" transform="translate(12.835 2.462)" fill="#111" fill-rule="evenodd"/>
    <path id="Tracé_6633" data-name="Tracé 6633" d="M46.1,8.454a2.553,2.553,0,0,0-1.036.216,2.9,2.9,0,0,0-.857.578,2.725,2.725,0,0,0-.583.84,2.5,2.5,0,0,0-.216,1.034,2.69,2.69,0,0,0,.216,1.068,2.891,2.891,0,0,0,.573.862,2.606,2.606,0,0,0,1.9.806,2.509,2.509,0,0,0,1.034-.216,2.679,2.679,0,0,0,.845-.59,2.854,2.854,0,0,0,.571-.862,2.574,2.574,0,0,0,.218-1.046,2.6,2.6,0,0,0-.218-1.046A2.712,2.712,0,0,0,47.132,8.67,2.53,2.53,0,0,0,46.1,8.454Zm2.594-5.44v-.36a1.939,1.939,0,0,1,.451-1.286,1.422,1.422,0,0,1,1.12-.475,1.5,1.5,0,0,1,1.154.492,1.835,1.835,0,0,1,.441,1.274V14.893a6.044,6.044,0,0,1-.046.857,1.613,1.613,0,0,1-.189.525,1.3,1.3,0,0,1-.525.514,1.572,1.572,0,0,1-.76.177,1.507,1.507,0,0,1-1.5-1.137,4.431,4.431,0,0,1-3.24,1.212,5.479,5.479,0,0,1-2.2-.441,5.1,5.1,0,0,1-1.737-1.228A5.864,5.864,0,0,1,40.514,13.5a6.438,6.438,0,0,1-.417-2.349,6.255,6.255,0,0,1,.417-2.315,5.807,5.807,0,0,1,1.144-1.857,5.335,5.335,0,0,1,1.714-1.24,5.429,5.429,0,0,1,3.834-.189,5.25,5.25,0,0,1,1.486.828V3.014Zm11.194,5.44a2.68,2.68,0,0,0-1.07.216,2.788,2.788,0,0,0-.868.583,2.633,2.633,0,0,0-.571.869,2.836,2.836,0,0,0-.2,1.1,2.489,2.489,0,0,0,.211,1,2.678,2.678,0,0,0,1.44,1.394,2.627,2.627,0,0,0,1.034.2A2.554,2.554,0,0,0,60.9,13.6a2.822,2.822,0,0,0,.856-.571,2.633,2.633,0,0,0,.583-.845,2.522,2.522,0,0,0,.213-1.036,2.781,2.781,0,0,0-.213-1.063,2.682,2.682,0,0,0-1.416-1.416,2.56,2.56,0,0,0-1.034-.218m0-3.17a5.725,5.725,0,0,1,2.285.461A5.935,5.935,0,0,1,65.3,8.87a5.765,5.765,0,0,1,.463,2.315,5.453,5.453,0,0,1-.463,2.251,5.924,5.924,0,0,1-1.274,1.857,6.069,6.069,0,0,1-1.881,1.264,5.713,5.713,0,0,1-2.285.461,5.943,5.943,0,0,1-4.176-1.69,6.155,6.155,0,0,1-1.274-1.834,5.292,5.292,0,0,1-.475-2.239A6.021,6.021,0,0,1,54.4,8.893,5.881,5.881,0,0,1,59.886,5.27m7.165,5.852a5.65,5.65,0,0,1,.463-2.263,5.958,5.958,0,0,1,3.12-3.131,5.583,5.583,0,0,1,2.251-.463,5.955,5.955,0,0,1,1.8.286,6.261,6.261,0,0,1,1.627.782,3.4,3.4,0,0,1,.892.818,1.585,1.585,0,0,1-.211,1.977,1.591,1.591,0,0,1-1.154.451,1.28,1.28,0,0,1-.475-.074,2.32,2.32,0,0,1-.525-.331,4.474,4.474,0,0,0-.916-.573,2.321,2.321,0,0,0-.892-.165,2.8,2.8,0,0,0-1.085.216,2.7,2.7,0,0,0-.88.59,2.857,2.857,0,0,0-.583.862,2.58,2.58,0,0,0-.211,1.046,2.693,2.693,0,0,0,.211,1.068,2.664,2.664,0,0,0,.583.85,2.849,2.849,0,0,0,.857.578,2.622,2.622,0,0,0,1.056.218,2.178,2.178,0,0,0,1.212-.309c.046-.034.137-.1.274-.189L75,12.985a2.213,2.213,0,0,1,.487-.274,1.325,1.325,0,0,1,.485-.086,1.578,1.578,0,0,1,1.594,1.593,1.607,1.607,0,0,1-.406,1.018,4.186,4.186,0,0,1-1.056.9,6.342,6.342,0,0,1-1.474.652,5.867,5.867,0,0,1-5.857-1.492,6.151,6.151,0,0,1-1.264-1.881,5.687,5.687,0,0,1-.463-2.285" transform="translate(28.648 0.638)" fill="#fdb130" fill-rule="evenodd"/>
    <path id="Tracé_6634" data-name="Tracé 6634" d="M13.071,5.24A14.886,14.886,0,0,1,13,10.966c-.183.7,1.531,2.966,1.589,5.611a.022.022,0,0,0,.022-.024c-.057-2.639-1.771-4.89-1.582-5.582a14.318,14.318,0,0,0,.045-5.725A5.3,5.3,0,0,0,11.295,2.3a5.379,5.379,0,0,1,1.781,2.944Zm-6.1-2.153a2.964,2.964,0,0,0-.612-.622,4.177,4.177,0,0,1,.612.622" transform="translate(4.546 1.645)" fill="#fff"/>
    <path id="Tracé_6635" data-name="Tracé 6635" d="M14.163,2.512A2.68,2.68,0,0,0,12.6,2a3.356,3.356,0,0,0-2.748,1.32A.022.022,0,0,0,9.825,3.3a2.955,2.955,0,0,0-.61-.622A3.515,3.515,0,0,0,7.089,2C5.575,2,4.363,3.117,3.77,5.478A15.006,15.006,0,0,0,3.907,11.2c.211.742-1.714,3.177-1.56,5.977a11.755,11.755,0,0,0,7.336,2.525,11.453,11.453,0,0,0,7.806-2.5c.223-2.64-1.8-5.354-1.612-6.045a12.15,12.15,0,0,0,.069-5.726,4.7,4.7,0,0,0-1.783-2.92" transform="translate(1.67 1.431)" fill="#fff"/>
    <path id="Tracé_6636" data-name="Tracé 6636" d="M5.188,9.18a13.6,13.6,0,0,0-.965,2.9,6.722,6.722,0,0,0-.086,1.69,2.836,2.836,0,0,1-.326-.257,10.185,10.185,0,0,1-1.548-1.457c-.069-.091-.144-.211-.213-.3a.852.852,0,0,1-.189-.531c0-.115-.045-.137-.137-.069-.159.113-.3.257-.439.37a2.114,2.114,0,0,1-.583.326.428.428,0,0,1-.561-.211.022.022,0,0,0-.022-.022A.976.976,0,0,1,0,11.106v-.069a1.879,1.879,0,0,1,.045-.348c.024-.091.024-.159.046-.257A8.955,8.955,0,0,1,.85,8.717,15.557,15.557,0,0,1,2.033,6.912a.119.119,0,0,1,.093.046A11.429,11.429,0,0,0,3.88,8.345c.394.257.816.509,1.24.744.022.022.069.022.069.091" transform="translate(0 4.938)" fill="#f7b21a"/>
    <path id="Tracé_6637" data-name="Tracé 6637" d="M7.552,15.005c-.166-.069-.189-.211-.189-.372,0-.211.022-.417.022-.6a.162.162,0,0,0-.069-.137c-.137-.069-.3-.113-.446-.189-.091-.045-.113,0-.113.069-.024.213-.046.418-.069.646A.279.279,0,0,1,6.5,14.7a.27.27,0,0,1-.326-.279,4.834,4.834,0,0,1,.091-.811c.022-.093,0-.137-.091-.161-.115-.045-.213-.069-.326-.113-.069-.024-.091,0-.115.069a5.734,5.734,0,0,0-.113.645.314.314,0,0,1-.093.235.245.245,0,0,1-.279.046.237.237,0,0,1-.142-.257,4.569,4.569,0,0,1,.137-.813c.022-.069.022-.135-.069-.135a.86.86,0,0,1-.257-.093c-.093-.045-.137-.022-.137.069a3.159,3.159,0,0,0-.093.646.266.266,0,1,1-.514-.12c.024-.235.069-.487.115-.72a.1.1,0,0,0-.069-.137,1.362,1.362,0,0,1-.279-.091c-.069-.024-.093,0-.115.069-.046.211-.091.439-.137.645a.085.085,0,0,1-.022.069.269.269,0,0,1-.326.189.255.255,0,0,1-.166-.3,7.8,7.8,0,0,1,.206-.924c.115-.441.228-.9.343-1.344,0-.022.022-.045.022-.091.069.137.12.279.189.417a.183.183,0,0,0,.326.069c.115-.137.257-.257.372-.394.069-.069.091-.069.137.024.069.159.142.348.211.507s.189.189.326.069c.161-.137.35-.279.509-.439.069-.046.091-.046.113.022.069.189.166.372.235.554s.166.213.326.115.326-.211.485-.3c.093-.045.115-.022.137.046.069.137.12.279.189.417.069.161.144.189.3.093.159-.069.326-.161.514-.257-.022.211-.046.394-.069.6a21.643,21.643,0,0,0-.2,2.176c0,.137-.091.213-.211.281H7.547Z" transform="translate(2.265 7.85)" fill="#891e6e"/>
    <path id="Tracé_6638" data-name="Tracé 6638" d="M1.672,9.645a27.061,27.061,0,0,1,.938-4.24,8.281,8.281,0,0,1,1.524-2.92A6.6,6.6,0,0,1,7.649.286,8.734,8.734,0,0,1,9.981.007c.492,0,.977-.024,1.468.022a7.677,7.677,0,0,1,4.206,1.5,6.993,6.993,0,0,1,1.876,2.315,12.047,12.047,0,0,1,.919,2.481c.189.765.406,1.507.543,2.291a11.528,11.528,0,0,1,.194,1.509v.091a1.585,1.585,0,0,1-.372.189c-.463.235-.953.441-1.421.652-.189.093-.394.161-.607.257-.045.024-.069.046-.113,0a1,1,0,0,1,0-.37c0-.137.022-.257.022-.394.022-.509.039-.994.017-1.509a11.884,11.884,0,0,0-.194-1.852,7.043,7.043,0,0,0-.5-1.509,4.731,4.731,0,0,0-.727-1.161A2.78,2.78,0,0,0,13.375,3.5a3.327,3.327,0,0,0-2.515.811,2.3,2.3,0,0,0-.394.418c-.069.091-.113.091-.189,0A3.179,3.179,0,0,0,8.969,3.76,3.21,3.21,0,0,0,7.757,3.5a3.458,3.458,0,0,0-1.188.189,3.147,3.147,0,0,0-1.142.835A5.5,5.5,0,0,0,4.5,6.194a7.124,7.124,0,0,0-.389,1.972,17.977,17.977,0,0,0-.039,1.948,7.679,7.679,0,0,0,.1,1.252v.115a.075.075,0,0,1-.113,0c-.326-.189-.629-.394-.938-.6A11.179,11.179,0,0,1,1.809,9.812c-.069-.069-.115-.093-.142-.161Z" transform="translate(1.191 0)" fill="#f7b21a"/>
    <path id="Tracé_6639" data-name="Tracé 6639" d="M13.43,7.061c.394-.137.772-.326,1.144-.485.417-.189.838-.394,1.279-.578.022-.022.069-.022.091-.046.377.676.727,1.366,1.1,2.04.022.024.022.069.045.093,0,.045-.045.045-.069.069-.514.279-1,.554-1.514.787-.583.281-1.188.555-1.793.813a.213.213,0,0,1-.115.022c-.326.137-.674.257-1,.394A24.839,24.839,0,0,1,8.384,11.4c-.348.069-.674.113-1.029.159-.069,0-.069.022-.069.091.046.463.12.948.171,1.411.024.161.024.3.046.463,0,.046,0,.069-.069.093a5.683,5.683,0,0,1-1.234.091.175.175,0,0,1-.022-.115c.069-.531.113-1.09.177-1.622s.115-1.068.177-1.624c.046-.485.115-.97.161-1.457.022-.211.045-.393.069-.6,0-.046,0-.093.045-.115.046,0,.046.046.069.091,0,.046.024.115.024.161a.132.132,0,0,0,.142.113c.137,0,.3-.022.446-.022a15.527,15.527,0,0,0,2.1-.3,19.651,19.651,0,0,0,2.589-.742c.394-.137.772-.279,1.142-.441.024.046.069.024.115.024Z" transform="translate(4.415 4.252)" fill="#651c52"/>
    <path id="Tracé_6640" data-name="Tracé 6640" d="M8.608,7.4a2.513,2.513,0,0,0-.069.417c-.046.281-.069.531-.091.813l-.069.622c-.024.206-.046.439-.069.645s-.046.394-.069.6c-.046.35-.069.676-.115,1.018-.046.279-.046.554-.091.857l-.069.554a5.614,5.614,0,0,0-.069.622c-.024.137-.024.279-.046.394-.046,0-.022-.022-.046-.046a2.274,2.274,0,0,1-.1-.326c-.046-.159-.166-.189-.3-.091l-.417.279a.419.419,0,0,0-.115.093l-.353-.766c-.069-.159-.189-.189-.326-.069l-.487.417c-.12-.257-.211-.485-.309-.718-.091-.213-.211-.235-.348-.069-.137.135-.279.3-.441.439a.5.5,0,0,1-.113.091c-.069-.189-.166-.348-.235-.53-.069-.161-.189-.189-.3-.069-.091.069-.189.159-.3.233.091-.394.206-.765.3-1.159.137-.578.3-1.138.434-1.714,0-.024.024-.069,0-.093a.645.645,0,0,1,.069-.279c.183-.742.389-1.457.578-2.2a.059.059,0,0,1,.022-.046.215.215,0,0,1,.161-.069,9.118,9.118,0,0,1,1.12-.159c.257-.022.514-.022.772-.022a6.916,6.916,0,0,1,1.423.189c.022.045.113.045.069.137Z" transform="translate(2.615 5.05)" fill="#891e6e"/>
    <path id="Tracé_6641" data-name="Tracé 6641" d="M10.508,8.909c.326-.137.629-.279.955-.417.862-.394,1.7-.813,2.513-1.276A.022.022,0,0,0,14,7.2a16.285,16.285,0,0,1,1.1,1.761,5.559,5.559,0,0,1,.588,1.48,1.8,1.8,0,0,1,.029.7c0,.046-.024.093-.024.137a.509.509,0,0,1-.772.35,2.8,2.8,0,0,1-.748-.531c-.069-.046-.115-.115-.189-.137s-.093,0-.093.045v.024a.778.778,0,0,1-.228.622,7.578,7.578,0,0,1-1.281,1.342,8.048,8.048,0,0,1-.674.531c-.022.024-.045.024-.069.046.024-.257.024-.485.024-.742a9.175,9.175,0,0,0-.406-2.063c-.235-.624-.5-1.252-.754-1.852Z" transform="translate(7.508 5.14)" fill="#f7b21a"/>
    <path id="Tracé_6642" data-name="Tracé 6642" d="M6.8,8.406a1.894,1.894,0,0,1-.069.348c-.137.578-.3,1.161-.463,1.737a2.923,2.923,0,0,1-.115.418,15.479,15.479,0,0,1-1.73-.789.087.087,0,0,0-.069-.022c-.3-.189-.629-.35-.938-.531a12.264,12.264,0,0,1-2.2-1.692L1.2,7.853a.108.108,0,0,1,0-.093c.273-.7.554-1.411.833-2.107l.022-.024A12.37,12.37,0,0,0,4.42,7.39l.144.069a1.47,1.47,0,0,1,.279.113A9.752,9.752,0,0,0,6.061,8.1c.233.093.468.161.7.235,0,.022.022.022.045.069Z" transform="translate(0.849 4.021)" fill="#651c52"/>
    <path id="Tracé_6643" data-name="Tracé 6643" d="M5.19,10.6c.069.159.166.37.235.554.022.022,0,.046-.024.069-.137.137-.3.257-.439.394-.024.022-.046.022-.069-.022-.069-.161-.144-.326-.213-.487a.044.044,0,0,1,0-.069A4.2,4.2,0,0,0,5.19,10.6m.914,1.32c-.1-.213-.166-.394-.233-.578-.024-.022,0-.046.022-.069.113-.091.233-.211.37-.326.024-.022.046-.022.069.022.093.189.166.372.257.555.024.022.024.045-.022.069-.159.113-.3.233-.463.326m-2.08-1.389.046.045c.045.137.12.257.165.394.024.024,0,.046-.022.069a4.336,4.336,0,0,0-.326.35c-.046.045-.069.022-.091-.024-.046-.137-.12-.257-.166-.394a.07.07,0,0,1,0-.091c.115-.115.235-.211.348-.326a.078.078,0,0,0,.046-.022m3.623,1.411s-.022.046-.046.046a1.832,1.832,0,0,0-.3.159c-.046.022-.046,0-.069-.022-.046-.115-.12-.235-.166-.372a.068.068,0,0,1,.022-.091,2.184,2.184,0,0,0,.326-.235c.024-.022.046-.046.069,0,.069.189.12.348.166.509Z" transform="translate(2.582 7.527)" fill="#8a1e6e"/>
    <path id="Tracé_6644" data-name="Tracé 6644" d="M5.458,10.993a12.149,12.149,0,0,1-2.195-.9.117.117,0,0,0-.091-.045C3.151,9.719,3.1,9.4,3.1,9.072a16.191,16.191,0,0,1,.017-2.177,7.193,7.193,0,0,1,.76-2.942,3.729,3.729,0,0,1,1.3-1.509,2.913,2.913,0,0,1,1.582-.417,3.44,3.44,0,0,1,2.452,1.09c.045.046.091.115.142.161s.046.069.091,0a3.274,3.274,0,0,1,2-1.207,2.925,2.925,0,0,1,3.131,1.276,5.881,5.881,0,0,1,1.012,2.616A15.255,15.255,0,0,1,15.738,8.7c0,.394-.046.787-.063,1.181a12.22,12.22,0,0,1-1.377.531,19.557,19.557,0,0,1-3.074.813,15.682,15.682,0,0,1-2.052.211c-.045,0-.069,0-.091-.069a1.883,1.883,0,0,1-.046-.348c.024-.069-.022-.093-.091-.093a6.489,6.489,0,0,0-1.793-.182,6.7,6.7,0,0,0-1.538.189c-.069.022-.115.022-.137.069Z" transform="translate(2.193 1.435)" fill="#fff"/>
    <path id="Tracé_6645" data-name="Tracé 6645" d="M7.429,7.359a.363.363,0,0,1-.166-.046A2.7,2.7,0,0,1,5.835,5.97c-.022-.069-.022-.115.046-.137.49-.235.953-.485,1.445-.72a.223.223,0,0,1,.235,0c.49.257.982.485,1.45.742.069.024.069.046.046.115A2.68,2.68,0,0,1,7.6,7.359a.2.2,0,0,0-.161,0Z" transform="translate(4.159 3.629)" fill="#fdcf02"/>
    <path id="Tracé_6646" data-name="Tracé 6646" d="M9.763,3.813a.71.71,0,0,1,.7.72.723.723,0,0,1-1.445,0,.743.743,0,0,1,.742-.72M6.774,4a.239.239,0,0,1-.069.159,3.377,3.377,0,0,1-.3.3c-.045.046-.045.069,0,.091a3.618,3.618,0,0,1,.3.3c.091.115.12.257.022.348a.252.252,0,0,1-.348,0l-.3-.3c-.045-.046-.069-.046-.091,0a3.607,3.607,0,0,1-.3.3.232.232,0,1,1-.326-.326L5.637,4.6c.045-.046.045-.069,0-.091a3.766,3.766,0,0,0-.3-.281.256.256,0,0,1-.022-.37.235.235,0,0,1,.348.022,3.9,3.9,0,0,1,.3.3c.022.045.045.045.091,0a3.891,3.891,0,0,1,.326-.326.215.215,0,0,1,.257-.046c.115,0,.166.069.142.189Z" transform="translate(3.746 2.707)" fill="#111212"/>
  </g>
</svg>
