<svg xmlns="http://www.w3.org/2000/svg" xmlns:xlink="http://www.w3.org/1999/xlink" width="37.544" height="33.926" viewBox="0 0 37.544 33.926">
  <defs>
    <clipPath id="clip-path">
      <path id="Tracé_6647" data-name="Tracé 6647" d="M19.075,28.033a32.935,32.935,0,0,1,1.946-10.678c.279,6.9.5,14.18-.778,14.18-.778,0-1.168-1.445-1.168-3.5M6.006,16.743l2.5-1.834c.221.166.333.333.333.444,0,.724-1.445,1.39-2.781,1.67H5.894c-.166,0-.111-.111.111-.279M5.445,0c-.036,0-.07,0-.106,0C1.889,0,0,2.173,0,4.843,0,9.069,4.06,11.9,6.674,13.684c-2.837,2.057-5.229,4.06-5.229,5.061,0,.89.669,1.279,2.171,1.056,1.889-.278,7.729-1.78,7.729-4.672a2.226,2.226,0,0,0-.833-1.5,42.565,42.565,0,0,1,5.114-2.947c-.667,3.395-1.166,7.285,1.558,7.285A2.78,2.78,0,0,0,19.13,16.8a29.425,29.425,0,0,0-2.447,10.621c0,4.727,1.279,6.506,3.616,6.506,2.836,0,3.28-4.449,3.28-9.176,0-3.5-.278-8.008-.555-11.124,2.224-3.168,5-5.505,8.008-6a45.562,45.562,0,0,1-4.171,5.394,2.529,2.529,0,0,0-.724,1.613,1.669,1.669,0,0,0,1.723,1.557h.057c1.113,0,4.17-1.39,6.841-2.337.833-.278,1.557-.111,2.114-.333a1.016,1.016,0,0,0,.665-1.058,1.293,1.293,0,0,0-1.279-1.279h-.166c-1.445,0-4.392,1.445-6.841,2.558,1.224-1.39,2.392-2.836,3.227-4,1.056-1.447,1.224-2.112.555-3.282a1.918,1.918,0,0,0-1.612-.945c-3.059,0-6.452,2.392-8.675,4.95-.113-1-.334-2.28-1.39-2.28-1.113,0-1.224.945-1.558,2.5-.61,3.115-1.445,4.84-2,4.84-.223,0-.334-.279-.334-.89a32.182,32.182,0,0,1,.945-5.562c.111-.612.168-1.5-.389-1.891-.61-.446-1.168-.334-2.669.667L8.842,12.128c-2.669-1.891-6.4-4.115-6.4-7.341a2.553,2.553,0,0,1,2.56-2.558h.166c2.224,0,2.947,1.39,3.113,3.059C8.4,6.4,9.01,6.732,9.788,6.622S10.956,5.9,10.9,4.843A5.421,5.421,0,0,0,5.644,0Z" transform="translate(0 -0.001)" fill="none"/>
    </clipPath>
    <linearGradient id="linear-gradient" x2="1" y2="1" gradientUnits="objectBoundingBox">
      <stop offset="0" stop-color="#ff730c"/>
      <stop offset="0.5" stop-color="#ffa60e"/>
      <stop offset="1" stop-color="#febf38"/>
    </linearGradient>
  </defs>
  <g id="Groupe_129" data-name="Groupe 129" transform="translate(0 0)" clip-path="url(#clip-path)">
    <rect id="Rectangle_368" data-name="Rectangle 368" width="37.593" height="33.926" transform="translate(0 -0.001)" fill="url(#linear-gradient)"/>
  </g>
</svg>
